<svg width="24" height="24" fill="none" xmlns="http://www.w3.org/2000/svg"><g opacity=".473" filter="url(#filter0_d)" fill="#fff"><path fill-rule="evenodd" clip-rule="evenodd" d="M12 0c2.138 0 4.145.832 5.657 2.343A7.943 7.943 0 0 1 20 8a7.943 7.943 0 0 1-2.343 5.657A7.943 7.943 0 0 1 12 16a7.943 7.943 0 0 1-5.657-2.343A7.944 7.944 0 0 1 4 8c0-2.138.832-4.145 2.343-5.657A7.943 7.943 0 0 1 12 0zm0 15.09a7.045 7.045 0 0 0 5.014-2.076c2.764-2.765 2.764-7.263 0-10.027A7.045 7.045 0 0 0 12 .909a7.045 7.045 0 0 0-5.013 2.078c-2.765 2.764-2.765 7.262 0 10.027A7.045 7.045 0 0 0 12 15.09z"/><path d="M15.525 4.475a.453.453 0 0 0-.643 0L12 7.357 9.118 4.475a.453.453 0 0 0-.643 0 .453.453 0 0 0 0 .643L11.357 8l-2.882 2.88a.458.458 0 1 0 .32.778.444.444 0 0 0 .32-.135l2.882-2.881 2.882 2.881a.458.458 0 0 0 .32.135.438.438 0 0 0 .32-.135.453.453 0 0 0 0-.643L12.642 8l2.882-2.882a.453.453 0 0 0 0-.643z"/></g><defs><filter id="filter0_d" x="0" y="0" width="24" height="24" filterUnits="userSpaceOnUse" color-interpolation-filters="sRGB"><feFlood flood-opacity="0" result="BackgroundImageFix"/><feColorMatrix in="SourceAlpha" values="0 0 0 0 0 0 0 0 0 0 0 0 0 0 0 0 0 0 127 0"/><feOffset dy="4"/><feGaussianBlur stdDeviation="2"/><feColorMatrix values="0 0 0 0 0 0 0 0 0 0 0 0 0 0 0 0 0 0 0.25 0"/><feBlend in2="BackgroundImageFix" result="effect1_dropShadow"/><feBlend in="SourceGraphic" in2="effect1_dropShadow" result="shape"/></filter></defs></svg>