<svg width="11" height="7" viewBox="0 0 11 7" fill="none" xmlns="http://www.w3.org/2000/svg">
<path fill-rule="evenodd" clip-rule="evenodd" d="M5.49831 0.0162964C3.39729 0.0162964 1.49197 1.16579 0.0860429 3.03286C-0.028681 3.18583 -0.028681 3.39953 0.0860429 3.55249C1.49197 5.42182 3.39729 6.57131 5.49831 6.57131C7.59934 6.57131 9.50465 5.42182 10.9106 3.55474C11.0253 3.40178 11.0253 3.18808 10.9106 3.03511C9.50465 1.16579 7.59934 0.0162964 5.49831 0.0162964ZM5.64903 5.60178C4.25435 5.68951 3.10261 4.54002 3.19034 3.14309C3.26232 1.99135 4.19586 1.05781 5.3476 0.985826C6.74228 0.898096 7.89402 2.04759 7.80629 3.44452C7.73206 4.59401 6.79852 5.52754 5.64903 5.60178ZM4.2566 3.21282C4.20711 3.96415 4.82797 4.58276 5.57929 4.53552C6.1979 4.49728 6.70179 3.99564 6.74228 3.37253C6.79177 2.6212 6.17091 2.00259 5.41958 2.04983C4.79872 2.09032 4.29484 2.59196 4.2566 3.21282Z" fill="#989898"/>
</svg>
