<svg width="27" height="32" fill="none" xmlns="http://www.w3.org/2000/svg"><path d="M26.904 26.99l-2.318-3.815a11.23 11.23 0 0 1-1.636-5.832V14c0-4.22-2.851-7.79-6.75-8.94V2.667C16.2 1.196 14.989 0 13.5 0c-1.49 0-2.7 1.196-2.7 2.667V5.06C6.9 6.21 4.05 9.78 4.05 14v3.343c0 2.053-.566 4.069-1.636 5.83L.096 26.99a.659.659 0 0 0-.008.672c.12.21.343.339.586.339h25.651a.68.68 0 0 0 .587-.337.662.662 0 0 0-.008-.672z" fill="#FAC917"/><path d="M9 28c.716 2.356 2.233 4 4 4s3.284-1.644 4-4H9z" fill="#FAC917"/></svg>