<svg width="32" height="33" fill="none" xmlns="http://www.w3.org/2000/svg"><path fill-rule="evenodd" clip-rule="evenodd" d="M30.96 29.701V14.789c0-.778-.648-1.41-1.445-1.41h-6.86V9.323c0-.383-.214-.736-.557-.923l-5.57-3.03a1.063 1.063 0 0 0-.094-.045v-1.73h3a.43.43 0 0 0 .433-.423V1.037a.428.428 0 0 0-.434-.423h-3V.423A.428.428 0 0 0 16 0c-.24 0-.433.19-.433.423v4.901a1.127 1.127 0 0 0-.095.045L9.902 8.4c-.343.187-.556.54-.556.924v4.057h-6.86c-.798 0-1.445.63-1.445 1.409v14.912A1.724 1.724 0 0 0 0 31.274C0 32.227.792 33 1.77 33h28.46c.978 0 1.77-.773 1.77-1.726 0-.7-.427-1.302-1.04-1.573zm-5.585-11.41c0-.453.377-.82.842-.82h1.573c.465 0 .842.367.842.82v1.536c0 .453-.377.82-.842.82h-1.573a.832.832 0 0 1-.842-.82v-1.535zm.842 4.112a.832.832 0 0 0-.842.82v1.536c0 .453.377.82.842.82h1.573a.831.831 0 0 0 .842-.82v-1.535a.832.832 0 0 0-.842-.821h-1.573zm-5.898-4.111a.83.83 0 0 1 .841-.821h1.574a.83.83 0 0 1 .841.82v1.536a.83.83 0 0 1-.841.82H21.16a.831.831 0 0 1-.841-.82v-1.535zm.841 4.11a.831.831 0 0 0-.841.822v1.535c0 .453.376.82.841.82h1.574a.831.831 0 0 0 .841-.82v-1.535a.832.832 0 0 0-.841-.821H21.16zM16 9.327c1.317 0 2.384 1.04 2.384 2.325 0 1.284-1.067 2.325-2.384 2.325s-2.384-1.041-2.384-2.325c0-1.284 1.067-2.325 2.384-2.325zm-1.545 12.527a.831.831 0 0 0-.842.821v6.467a.8.8 0 0 0 .111.407h4.552a.8.8 0 0 0 .11-.407v-6.467a.831.831 0 0 0-.84-.82h-3.091zm-6.03-3.561a.83.83 0 0 1 .841-.821h1.574a.83.83 0 0 1 .841.82v1.536a.83.83 0 0 1-.841.82H9.266a.831.831 0 0 1-.841-.82v-1.535zm.841 4.11a.831.831 0 0 0-.841.822v1.535c0 .453.376.82.841.82h1.574a.831.831 0 0 0 .841-.82v-1.535a.831.831 0 0 0-.841-.821H9.266zm-5.898-4.11c0-.454.377-.821.842-.821h1.573c.465 0 .842.367.842.82v1.536c0 .453-.377.82-.842.82H4.21a.831.831 0 0 1-.842-.82v-1.535zm.842 4.11a.831.831 0 0 0-.842.822v1.535c0 .453.377.82.842.82h1.573a.831.831 0 0 0 .842-.82v-1.535a.832.832 0 0 0-.842-.821H4.21z" fill="#FAC917"/></svg>