<svg width="24" height="24" viewBox="0 0 24 24" fill="none" xmlns="http://www.w3.org/2000/svg">
<g opacity="0.472599" filter="url(#filter0_d)">
<path fill-rule="evenodd" clip-rule="evenodd" d="M12 0C14.138 0 16.1448 0.83165 17.6566 2.34343C19.1684 3.85522 20 5.86195 20 8C20 10.138 19.1684 12.1448 17.6566 13.6566C16.1448 15.1684 14.138 16 12 16C9.86195 16 7.85522 15.1684 6.34343 13.6566C4.83165 12.1448 4 10.138 4 8C4 5.86195 4.83165 3.85522 6.34343 2.34343C7.85522 0.83165 9.86195 0 12 0ZM12 15.0909C13.8923 15.0909 15.6734 14.3535 17.0135 13.0135C19.7778 10.2492 19.7778 5.75084 17.0135 2.98653C15.6734 1.64646 13.8923 0.909091 12 0.909091C10.1077 0.909091 8.3266 1.64646 6.98653 2.98653C4.22222 5.75084 4.22222 10.2492 6.98653 13.0135C8.3266 14.3535 10.1077 15.0909 12 15.0909Z" fill="white"/>
<path d="M15.5251 4.4749C15.3466 4.29647 15.0604 4.29647 14.882 4.4749L12 7.35658L9.11796 4.4749C8.93952 4.29647 8.65334 4.29647 8.4749 4.4749C8.29645 4.65332 8.29645 4.93947 8.4749 5.11789L11.3569 7.99957L8.4749 10.8813C8.29645 11.0597 8.29645 11.3458 8.4749 11.5243C8.56243 11.6118 8.68027 11.6589 8.79475 11.6589C8.90922 11.6589 9.02706 11.6151 9.1146 11.5243L11.9966 8.64257L14.8786 11.5243C14.9662 11.6118 15.084 11.6589 15.1985 11.6589C15.3163 11.6589 15.4308 11.6151 15.5183 11.5243C15.6968 11.3458 15.6968 11.0597 15.5183 10.8813L12.643 7.99957L15.5251 5.11789C15.7035 4.93947 15.7035 4.65332 15.5251 4.4749Z" fill="white"/>
</g>
<defs>
<filter id="filter0_d" x="0" y="0" width="24" height="24" filterUnits="userSpaceOnUse" color-interpolation-filters="sRGB">
<feFlood flood-opacity="0" result="BackgroundImageFix"/>
<feColorMatrix in="SourceAlpha" type="matrix" values="0 0 0 0 0 0 0 0 0 0 0 0 0 0 0 0 0 0 127 0"/>
<feOffset dy="4"/>
<feGaussianBlur stdDeviation="2"/>
<feColorMatrix type="matrix" values="0 0 0 0 0 0 0 0 0 0 0 0 0 0 0 0 0 0 0.25 0"/>
<feBlend mode="normal" in2="BackgroundImageFix" result="effect1_dropShadow"/>
<feBlend mode="normal" in="SourceGraphic" in2="effect1_dropShadow" result="shape"/>
</filter>
</defs>
</svg>
