<svg width="27" height="32" viewBox="0 0 27 32" fill="none" xmlns="http://www.w3.org/2000/svg">
<path d="M26.9042 26.9906L24.5862 23.1746C23.5157 21.4133 22.95 19.396 22.95 17.3426V14C22.95 9.77998 20.0986 6.21067 16.1997 5.05999V2.66668C16.1997 1.196 14.9887 0 13.4995 0C12.0104 0 10.7994 1.196 10.7994 2.66668V5.05999C6.90051 6.21067 4.0492 9.77998 4.0492 14V17.3426C4.0492 19.396 3.48351 21.412 2.41426 23.1733L0.0962439 26.9893C-0.0293111 27.196 -0.0320323 27.452 0.0881435 27.6613C0.208319 27.8706 0.431078 28 0.674088 28H26.3251C26.5681 28 26.7922 27.8707 26.9123 27.6627C27.0325 27.4546 27.0285 27.1959 26.9042 26.9906Z" fill="#FAC917"/>
<path d="M9 28C9.71642 30.356 11.2331 32 13 32C14.7668 32 16.2836 30.356 17 28H9V28Z" fill="#FAC917"/>
</svg>
