<svg width="32" height="33" viewBox="0 0 32 33" fill="none" xmlns="http://www.w3.org/2000/svg">
<path fill-rule="evenodd" clip-rule="evenodd" d="M30.9591 29.701V14.789C30.9591 14.0107 30.3124 13.3797 29.5145 13.3797H22.6541V9.32244C22.6541 8.93923 22.4412 8.58604 22.0983 8.39943L16.5279 5.36928C16.4972 5.35253 16.4655 5.33785 16.4336 5.32432V3.59511H19.4332C19.6725 3.59511 19.8666 3.40577 19.8666 3.1723V1.0367C19.8666 0.803222 19.6725 0.613884 19.4332 0.613884H16.4336V0.422814C16.4336 0.189338 16.2397 0 16.0003 0C15.7608 0 15.5669 0.189338 15.5669 0.422814V5.32432C15.535 5.33793 15.5033 5.35261 15.4725 5.36928L9.9021 8.39951C9.55888 8.58604 9.34616 8.93931 9.34616 9.32252V13.3797H2.48561C1.68769 13.3797 1.041 14.0107 1.041 14.789V29.7009C0.427209 29.9718 0 30.574 0 31.2737C0 32.2272 0.792337 33 1.76973 33H30.2303C31.2077 33 32 32.2272 32 31.2737C31.9999 30.574 31.5728 29.9718 30.9591 29.701ZM25.3748 18.2916C25.3748 17.8383 25.7516 17.4707 26.2167 17.4707H27.7903C28.255 17.4707 28.6319 17.8383 28.6319 18.2916V19.8267C28.6319 20.28 28.255 20.6476 27.7903 20.6476H26.2168C25.7517 20.6476 25.3749 20.28 25.3749 19.8267V18.2916H25.3748ZM26.2167 22.4029C25.7516 22.4029 25.3748 22.7705 25.3748 23.2238H25.3749V24.7587C25.3749 25.2121 25.7517 25.5796 26.2168 25.5796H27.7903C28.255 25.5796 28.6319 25.2121 28.6319 24.7587V23.2238C28.6319 22.7705 28.255 22.4029 27.7903 22.4029H26.2167ZM20.3186 18.2916C20.3186 17.8383 20.6952 17.4707 21.16 17.4707H22.7338C23.1983 17.4707 23.5752 17.8383 23.5752 18.2916V19.8267C23.5752 20.28 23.1983 20.6476 22.7338 20.6476H21.16C20.6952 20.6476 20.3186 20.28 20.3186 19.8267V18.2916ZM21.16 22.4029C20.6952 22.4029 20.3186 22.7705 20.3186 23.2238V24.7587C20.3186 25.2121 20.6952 25.5796 21.16 25.5796H22.7338C23.1983 25.5796 23.5752 25.2121 23.5752 24.7587V23.2238C23.5752 22.7705 23.1983 22.4029 22.7338 22.4029H21.16ZM16 9.32574C17.3166 9.32574 18.3839 10.3667 18.3839 11.6509C18.3839 12.9351 17.3166 13.976 16 13.976C14.6834 13.976 13.6162 12.935 13.6162 11.6508C13.6162 10.3666 14.6834 9.32574 16 9.32574ZM14.4547 21.8531C13.9896 21.8531 13.6129 22.2207 13.6129 22.674L13.6132 29.1412C13.6132 29.2892 13.6539 29.4279 13.7244 29.5479H18.2759C18.3464 29.4279 18.3869 29.2892 18.3869 29.1412V22.674C18.3869 22.2207 18.0102 21.8531 17.5453 21.8531H14.4547ZM8.42459 18.2916C8.42459 17.8383 8.8013 17.4707 9.26606 17.4707H10.8397C11.3045 17.4707 11.6812 17.8383 11.6812 18.2916V19.8267C11.6812 20.28 11.3045 20.6476 10.8397 20.6476H9.26606C8.8013 20.6476 8.42459 20.28 8.42459 19.8267V18.2916ZM9.26606 22.4029C8.8013 22.4029 8.42459 22.7705 8.42459 23.2238V24.7587C8.42459 25.2121 8.8013 25.5796 9.26606 25.5796H10.8397C11.3045 25.5796 11.6812 25.2121 11.6812 24.7587V23.2238C11.6812 22.7705 11.3045 22.4029 10.8397 22.4029H9.26606ZM3.36786 18.2916C3.36786 17.8383 3.74457 17.4707 4.20959 17.4707H5.7831C6.24803 17.4707 6.62483 17.8383 6.62483 18.2916V19.8267C6.62483 20.28 6.24803 20.6476 5.7831 20.6476H4.20967C3.74466 20.6476 3.36794 20.28 3.36794 19.8267V18.2916H3.36786ZM4.20959 22.4029C3.74457 22.4029 3.36786 22.7705 3.36786 23.2238H3.36794V24.7587C3.36794 25.2121 3.74466 25.5796 4.20967 25.5796H5.7831C6.24803 25.5796 6.62483 25.2121 6.62483 24.7587V23.2238C6.62483 22.7705 6.24803 22.4029 5.7831 22.4029H4.20959Z" fill="#FAC917"/>
</svg>
